<svg xmlns="http://www.w3.org/2000/svg" xmlns:xlink="http://www.w3.org/1999/xlink" viewBox="0 0 1378.96 518.3"><defs><style>.cls-1,.cls-23,.cls-26,.cls-28,.cls-29,.cls-3{fill:none;}.cls-2{isolation:isolate;}.cls-3{stroke:#241434;}.cls-26,.cls-3{stroke-linecap:round;stroke-linejoin:round;}.cls-28,.cls-29,.cls-3{stroke-width:0.75px;}.cls-4{fill:#fbf0d5;}.cls-5{fill:#f99e26;}.cls-6{fill:#241434;}.cls-7{fill:#d73d3a;}.cls-8{fill:#eb9291;}.cls-9{fill:#25215c;}.cls-10{fill:#383938;opacity:0.37;mix-blend-mode:color-burn;}.cls-11{fill:#fff;}.cls-12,.cls-16{fill:#d5c2df;}.cls-13{clip-path:url(#clip-path);}.cls-14{fill:#95b3de;}.cls-15{fill:#efe3f0;}.cls-16{opacity:0.42;}.cls-17{fill:#d57928;}.cls-18{fill:#fbd06b;}.cls-19{fill:#fbe1ad;}.cls-20{fill:#f0526f;}.cls-21{fill:#8662aa;}.cls-22{fill:#f9c4d2;}.cls-23,.cls-29{stroke:#fff;}.cls-23,.cls-28,.cls-29{stroke-miterlimit:10;}.cls-24{fill:#4d3761;}.cls-25{fill:#e87a66;}.cls-26{stroke:#1a112a;}.cls-27{fill:#e2a2a4;}.cls-28{stroke:#e6b9b9;}</style><clipPath id="clip-path" transform="translate(663.81 -137.79)"><circle id="SVGID" class="cls-1" cx="379.53" cy="439.33" r="54.51" transform="translate(-64.46 65.26) rotate(-9.06)"/></clipPath></defs><g class="cls-2"><g id="Layer_1" data-name="Layer 1"><path class="cls-3" d="M275.9,252.36l-46.41-18.72-46.9,18.71a2.91,2.91,0,0,0,1.07,5.61h91.15A2.91,2.91,0,0,0,275.9,252.36Z" transform="translate(663.81 -137.79)"/><path class="cls-3" d="M229.46,233.64l-.07-6.45a2.55,2.55,0,0,1,2.56-2.56h0a5.72,5.72,0,0,0,5.61-6,5.77,5.77,0,0,0-5.52-5.43,5.71,5.71,0,0,0-5.52,3.6" transform="translate(663.81 -137.79)"/><path class="cls-4" d="M189.5,252.13h85.13V489.42H190.34V257.07h-5.08v-.7A4.24,4.24,0,0,1,189.5,252.13Z" transform="translate(663.81 -137.79)"/><rect class="cls-5" x="185.26" y="258.6" width="5.09" height="191.12" transform="translate(1039.41 570.53) rotate(180)"/><line class="cls-3" x1="869.84" y1="114.34" x2="869.84" y2="338.89"/><line class="cls-3" x1="869.84" y1="114.34" x2="869.84" y2="338.89"/><line class="cls-3" x1="935.95" y1="338.89" x2="856.19" y2="338.89"/><line class="cls-3" x1="932.38" y1="342.02" x2="932.38" y2="349.37"/><line class="cls-3" x1="920.5" y1="342.02" x2="920.5" y2="349.37"/><line class="cls-3" x1="908.61" y1="342.02" x2="908.61" y2="349.37"/><line class="cls-3" x1="896.73" y1="342.02" x2="896.73" y2="349.37"/><line class="cls-3" x1="884.85" y1="342.02" x2="884.85" y2="349.37"/><line class="cls-3" x1="872.96" y1="342.02" x2="872.96" y2="349.37"/><line class="cls-3" x1="861.08" y1="342.02" x2="861.08" y2="349.37"/><path class="cls-6" d="M339.89,217.58a5.66,5.66,0,1,1-5.66-5.66A5.67,5.67,0,0,1,339.89,217.58Z" transform="translate(663.81 -137.79)"/><line class="cls-3" x1="971.17" y1="57.23" x2="971.17" y2="450.7"/><line class="cls-3" x1="752.04" y1="450.7" x2="752.04" y2="57.23"/><line class="cls-3" x1="720.24" y1="79.79" x2="1002.96" y2="79.79"/><line class="cls-3" x1="752.43" y1="428.15" x2="971.17" y2="428.15"/><path class="cls-6" d="M66.54,217.58a5.66,5.66,0,1,1-5.66-5.66A5.66,5.66,0,0,1,66.54,217.58Z" transform="translate(663.81 -137.79)"/><path class="cls-3" d="M192.86,253.67l-49-19.76L94.33,253.66a3.07,3.07,0,0,0,1.14,5.93h96.24A3.07,3.07,0,0,0,192.86,253.67Z" transform="translate(663.81 -137.79)"/><path class="cls-3" d="M143.83,233.91l-.08-6.81a2.69,2.69,0,0,1,2.71-2.71h0a6.05,6.05,0,1,0-5.74-8.29" transform="translate(663.81 -137.79)"/><path class="cls-7" d="M120.13,260.87" transform="translate(663.81 -137.79)"/><path class="cls-8" d="M183.79,350c.93-14.78-15.3-91.62-15.3-91.62l-53-.18s-12.88,80-12.14,91.8l-.07,99.72s37.9,12.13,80.56,0Z" transform="translate(663.81 -137.79)"/><line class="cls-3" x1="779.06" y1="128.74" x2="833.07" y2="128.74"/><line class="cls-3" x1="817.73" y1="120.48" x2="817.73" y2="128.33"/><circle class="cls-9" cx="805.77" cy="124.4" r="1.3"/><path class="cls-3" d="M159.28,266.53s-2.91,13.74,13.57,13.25" transform="translate(663.81 -137.79)"/><path class="cls-3" d="M125.85,266.53s2.9,13.74-13.57,13.25" transform="translate(663.81 -137.79)"/><path class="cls-3" d="M145.91,267.05v19c0,3.84-.33,6.95-4.17,6.95H139" transform="translate(663.81 -137.79)"/><line class="cls-3" x1="802.4" y1="128.74" x2="802.4" y2="155.24"/><line class="cls-3" x1="792.41" y1="120.48" x2="792.41" y2="128.33"/><line class="cls-3" x1="834.42" y1="209.32" x2="834.42" y2="314.35"/><line class="cls-3" x1="817.27" y1="209.32" x2="817.27" y2="317.04"/><line class="cls-3" x1="800.12" y1="209.32" x2="800.12" y2="317.14"/><line class="cls-3" x1="782.97" y1="209.32" x2="782.97" y2="314.35"/><ellipse class="cls-10" cx="964.2" cy="452.87" rx="273.36" ry="28.51"/><path class="cls-11" d="M914.7,153.85h246.4a3.8,3.8,0,0,1,3.8,3.8V446.72a0,0,0,0,1,0,0h-254a0,0,0,0,1,0,0V157.64A3.8,3.8,0,0,1,914.7,153.85Z"/><line class="cls-3" x1="1164.9" y1="213.76" x2="910.9" y2="213.76"/><line class="cls-3" x1="1125.85" y1="424.36" x2="953.61" y2="424.36"/><path class="cls-12" d="M407.57,319.38a5.43,5.43,0,1,1-5.42-5.42A5.42,5.42,0,0,1,407.57,319.38Z" transform="translate(663.81 -137.79)"/><path class="cls-3" d="M407.57,319.38a5.43,5.43,0,1,1-5.42-5.42" transform="translate(663.81 -137.79)"/><path class="cls-12" d="M445.69,319.38a5.43,5.43,0,1,1-5.43-5.42A5.42,5.42,0,0,1,445.69,319.38Z" transform="translate(663.81 -137.79)"/><path class="cls-3" d="M445.69,319.38a5.43,5.43,0,1,1-5.43-5.42" transform="translate(663.81 -137.79)"/><path class="cls-12" d="M483.8,319.38a5.43,5.43,0,1,1-5.42-5.42A5.42,5.42,0,0,1,483.8,319.38Z" transform="translate(663.81 -137.79)"/><path class="cls-3" d="M483.8,319.38a5.43,5.43,0,1,1-5.42-5.42" transform="translate(663.81 -137.79)"/><line class="cls-3" x1="1057.79" y1="194.61" x2="1074.14" y2="194.61"/><line class="cls-3" x1="1095.9" y1="194.61" x2="1112.25" y2="194.61"/><line class="cls-3" x1="1134.02" y1="194.61" x2="1150.37" y2="194.61"/><path class="cls-12" d="M299.76,321.9a11,11,0,1,1-11-11A11,11,0,0,1,299.76,321.9Z" transform="translate(663.81 -137.79)"/><path class="cls-3" d="M299.76,321.9a11,11,0,1,1-11-11" transform="translate(663.81 -137.79)"/><line class="cls-3" x1="937.56" y1="200.7" x2="967.66" y2="200.7"/><line class="cls-3" x1="991.75" y1="153.85" x2="991.75" y2="213.76"/><path class="cls-12" d="M356.83,320.57h-7.55a3.15,3.15,0,0,1-3.15-3.15h0a3.15,3.15,0,0,1,3.15-3.15h7.55a3.15,3.15,0,0,1,3.15,3.15h0A3.15,3.15,0,0,1,356.83,320.57Z" transform="translate(663.81 -137.79)"/><path class="cls-12" d="M356.83,333.57h-7.55a3.15,3.15,0,0,1-3.15-3.15h0a3.15,3.15,0,0,1,3.15-3.15h7.55a3.15,3.15,0,0,1,3.15,3.15h0A3.15,3.15,0,0,1,356.83,333.57Z" transform="translate(663.81 -137.79)"/><path class="cls-12" d="M372,320.57h-.62a3.15,3.15,0,0,1-3.15-3.15h0a3.15,3.15,0,0,1,3.15-3.15H372a3.15,3.15,0,0,1,3.15,3.15h0A3.15,3.15,0,0,1,372,320.57Z" transform="translate(663.81 -137.79)"/><path class="cls-12" d="M372,333.57h-.62a3.15,3.15,0,0,1-3.15-3.15h0a3.15,3.15,0,0,1,3.15-3.15H372a3.15,3.15,0,0,1,3.15,3.15h0A3.15,3.15,0,0,1,372,333.57Z" transform="translate(663.81 -137.79)"/><path class="cls-3" d="M360,317.42h0a3.15,3.15,0,0,1-3.15,3.15h-7.55a3.15,3.15,0,0,1-3.15-3.15h0a3.15,3.15,0,0,1,3.15-3.15" transform="translate(663.81 -137.79)"/><path class="cls-3" d="M360,330.42h0a3.15,3.15,0,0,1-3.15,3.15h-7.55a3.15,3.15,0,0,1-3.15-3.15h0a3.15,3.15,0,0,1,3.15-3.15" transform="translate(663.81 -137.79)"/><path class="cls-3" d="M375.11,317.42h0a3.15,3.15,0,0,1-3.15,3.15h-.62a3.15,3.15,0,0,1-3.15-3.15h0a3.15,3.15,0,0,1,3.15-3.15" transform="translate(663.81 -137.79)"/><path class="cls-3" d="M375.11,330.42h0a3.15,3.15,0,0,1-3.15,3.15h-.62a3.15,3.15,0,0,1-3.15-3.15h0a3.15,3.15,0,0,1,3.15-3.15" transform="translate(663.81 -137.79)"/><circle class="cls-12" cx="379.53" cy="439.33" r="69.02" transform="translate(526.09 37.92) rotate(-22.17)"/><path class="cls-3" d="M406.4,502.92a69,69,0,1,1-26.87-132.61" transform="translate(663.81 -137.79)"/><path class="cls-3" d="M446.62,455.58a69.08,69.08,0,0,1-26.55,39.61" transform="translate(663.81 -137.79)"/><circle class="cls-6" cx="379.53" cy="439.33" r="54.51" transform="translate(599.35 -72.52) rotate(-9.06)"/><g class="cls-13"><path class="cls-4" d="M293.82,431.59c6.51-5.53,15.53-6.86,24.05-7.4,14.91-.93,33.57-2.19,47.9,2.09,15.55,4.65,15.11,20.71,37.42,18.35,3.65-.38,21.31.05,24.16,2.36,10.64,8.59,4.82,23.34,6,28.4,1.1,4.82-20.6,6.35-24,6.7-6,.63-12.08-.62-17.92-1.73a175.8,175.8,0,0,0-31.89-3.07" transform="translate(663.81 -137.79)"/><path class="cls-14" d="M312.89,426.51c7.6,1.69,13.93,5.23,20.86,8.46s9.14,21.26,16.39,23.49c17.84,5.48,38.77-.16,53.15,11.73a9.59,9.59,0,0,1,3.24,3.87c1,2.91-1.09,6.18-3.87,7.52-3.82,1.85-10.35,2.49-14.62,2.53-7.23.06-14.49-.4-21.7-.87-14.47-.94-28.91-2.36-43.41-2.69-6.66-.15-13.44-.05-19.77,2" transform="translate(663.81 -137.79)"/></g><path class="cls-3" d="M330.09,433.23c4.44,2.09,9.46,7.77,11.08,12.41a26.18,26.18,0,0,0,8.63,12.2c3.76,2.77,8.75,3,13.41,3.3,11.85.86,22.6,1.08,33.79,5.07" transform="translate(663.81 -137.79)"/><path class="cls-15" d="M403.58,468.2h-46.9A10.81,10.81,0,0,0,345.86,479v13.5h0v52.71a3.28,3.28,0,0,0,3.27,3.27h63.46a3.28,3.28,0,0,0,3.27-3.27V480.48A12.28,12.28,0,0,0,403.58,468.2Z" transform="translate(663.81 -137.79)"/><rect class="cls-12" x="1009.68" y="385.08" width="69.9" height="6.41"/><rect class="cls-12" x="1009.68" y="395.6" width="69.9" height="3.84"/><path class="cls-3" d="M409.76,377.27a69.21,69.21,0,0,1,35.19,40" transform="translate(663.81 -137.79)"/><ellipse class="cls-16" cx="1176.15" cy="301.54" rx="50.57" ry="53.55"/><path class="cls-12" d="M512.34,370.31c-36,0-65.17,30.9-65.17,69s29.18,69,65.17,69,65.17-30.9,65.17-69S548.33,370.31,512.34,370.31Zm0,122.57c-27.89,0-50.57-24-50.57-53.55s22.68-53.55,50.57-53.55,50.57,24,50.57,53.55S540.22,492.88,512.34,492.88Z" transform="translate(663.81 -137.79)"/><path class="cls-3" d="M562.91,439.33c0,29.53-22.69,53.55-50.57,53.55s-50.57-24-50.57-53.55,22.68-53.55,50.57-53.55" transform="translate(663.81 -137.79)"/><line class="cls-3" x1="1148.91" y1="313.08" x2="1167.99" y2="275.22"/><line class="cls-3" x1="1183.76" y1="284.22" x2="1190.8" y2="270.27"/><line class="cls-3" x1="1160.75" y1="329.88" x2="1178.76" y2="294.15"/><line class="cls-3" x1="1187.28" y1="329.06" x2="1203.4" y2="297.09"/><path class="cls-3" d="M564.63,480.54a71.45,71.45,0,0,0,12.88-41.21c0-38.12-29.18-69-65.17-69" transform="translate(663.81 -137.79)"/><path class="cls-3" d="M462.57,394.76a71.22,71.22,0,0,0-15.4,44.57c0,38.12,29.18,69,65.17,69a62,62,0,0,0,21-3.65" transform="translate(663.81 -137.79)"/><line class="cls-3" x1="1073.12" y1="381.47" x2="1039.73" y2="381.47"/><line class="cls-3" x1="1059.47" y1="391.98" x2="1013.11" y2="391.98"/><path class="cls-17" d="M480.16,291.08H419.65V212.76h60.51A562.23,562.23,0,0,0,480.16,291.08Z" transform="translate(663.81 -137.79)"/><path class="cls-18" d="M467.11,291.08H406.6c1.27-23.32,1-49.93,0-78.32h60.51Q465.51,250.76,467.11,291.08Z" transform="translate(663.81 -137.79)"/><path class="cls-3" d="M467.11,212.76q-1.61,38,0,78.32" transform="translate(663.81 -137.79)"/><polygon class="cls-5" points="1070.41 74.98 1065.17 84.67 1124.8 84.67 1130.93 74.98 1070.41 74.98"/><line class="cls-3" x1="1065.17" y1="84.67" x2="1124.8" y2="84.67"/><polygon class="cls-5" points="1143.98 74.98 1130.93 74.98 1135.97 84.67 1149.42 84.67 1143.98 74.98"/><circle class="cls-19" cx="436.85" cy="251.92" r="21.26" transform="translate(613.63 244.9) rotate(-45)"/><path class="cls-3" d="M458.11,251.92a21.26,21.26,0,1,1-21.26-21.26" transform="translate(663.81 -137.79)"/><path class="cls-11" d="M451.64,242.73a4.31,4.31,0,0,0-2,1.66,5.24,5.24,0,0,0-.4,4.55,2.07,2.07,0,0,0-2.83-1.27,3.16,3.16,0,0,0-1.66,2.93,6.92,6.92,0,0,0,1.11,3.35,28.7,28.7,0,0,1,1.74,3.11,2.08,2.08,0,0,0-1.63,2.76,3.14,3.14,0,0,0-5.61.77,11.67,11.67,0,0,0,1.05-4.39,4,4,0,0,0-2.18-3.69c-1.4-.57-3.34.36-3.39,1.87a11.78,11.78,0,0,0-1.48-3.27,4.55,4.55,0,0,0-2.92-1.94,4.22,4.22,0,0,0-4.1,2.33,6.89,6.89,0,0,0-.36,4.9,21.07,21.07,0,0,0,2,4.58,3.77,3.77,0,0,0-4.07-.15,10.83,10.83,0,0,0-1.24-2.75,3.68,3.68,0,0,0-2.3-1.59,2.16,2.16,0,0,0-1.32.22,17.41,17.41,0,1,0,31.52-14Z" transform="translate(663.81 -137.79)"/><line class="cls-3" x1="1126.51" y1="149.37" x2="1115.69" y2="149.37"/><line class="cls-3" x1="1126.51" y1="146.33" x2="1115.69" y2="146.33"/><line class="cls-3" x1="1126.51" y1="143.3" x2="1118.93" y2="143.3"/><path class="cls-18" d="M510.43,543.18q.12-8.1.42-15.88a28.13,28.13,0,0,0-7.73-19.45L490.63,494.8H468l-14.86,17.36a28.2,28.2,0,0,0-6.72,18.34q.21,6.51.32,12.68c.21,12,.16,23-.09,33.39q-.09,4-.23,7.94a14,14,0,0,0,13.69,14.21h37.08a14,14,0,0,0,13.69-14.21q-.14-4-.22-7.94Q510.21,559.3,510.43,543.18Zm-23.75-34.82a3.2,3.2,0,0,1,5.54-2.3l7.78,8.41A17,17,0,0,1,504.48,526a4.69,4.69,0,0,1-4.61,4.78h-4.26a5.69,5.69,0,0,1-5.39-4.08l-3.38-10.9a3.51,3.51,0,0,1-.16-1Z" transform="translate(663.81 -137.79)"/><path class="cls-5" d="M446.62,576.57c.25-10.37.3-21.41.09-33.39h63.72q-.24,16.11.2,33.39Z" transform="translate(663.81 -137.79)"/><path class="cls-19" d="M477,533.12H462.57a7.47,7.47,0,0,0-7.33,7.6V579a7.47,7.47,0,0,0,7.33,7.6H477a7.47,7.47,0,0,0,7.33-7.6V540.72A7.47,7.47,0,0,0,477,533.12Z" transform="translate(663.81 -137.79)"/><path class="cls-3" d="M455.24,540.72V579a7.47,7.47,0,0,0,7.33,7.6H477a7.47,7.47,0,0,0,7.33-7.6" transform="translate(663.81 -137.79)"/><line class="cls-3" x1="1142.72" y1="442.89" x2="1135.2" y2="442.89"/><line class="cls-3" x1="1142.72" y1="440.44" x2="1135.2" y2="440.44"/><line class="cls-3" x1="1142.72" y1="438" x2="1137.56" y2="438"/><path class="cls-20" d="M468.05,491.26s-.42-12.65,0-14.28,21.59-1.69,22.07,0,.36,14.28.36,14.28Z" transform="translate(663.81 -137.79)"/><path class="cls-19" d="M466.59,490.76c-.94.85-.55,4.13,0,5.07s24.38.61,25.6,0,.5-4.41,0-5.07S467.63,489.82,466.59,490.76Z" transform="translate(663.81 -137.79)"/><path class="cls-3" d="M466.59,495.83c.54.94,24.38.61,25.6,0" transform="translate(663.81 -137.79)"/><line class="cls-3" x1="1134.13" y1="341.59" x2="1134.13" y2="348.93"/><line class="cls-3" x1="1137.68" y1="341.59" x2="1137.68" y2="348.93"/><line class="cls-3" x1="1141.22" y1="341.59" x2="1141.22" y2="348.93"/><line class="cls-3" x1="1144.77" y1="341.59" x2="1144.77" y2="348.93"/><line class="cls-3" x1="1148.31" y1="341.59" x2="1148.31" y2="348.93"/><line class="cls-3" x1="1151.86" y1="341.59" x2="1151.86" y2="348.93"/><path class="cls-3" d="M504.48,526a4.69,4.69,0,0,1-4.61,4.78h-4.26a5.69,5.69,0,0,1-5.39-4.08l-3.38-10.9a3.51,3.51,0,0,1-.16-1v-6.44a3.2,3.2,0,0,1,5.54-2.3" transform="translate(663.81 -137.79)"/><path class="cls-18" d="M272.71,268.47h79.08a6.83,6.83,0,0,1,6.83,6.83v8.41a6.83,6.83,0,0,1-6.83,6.83H272.71a4,4,0,0,1-4-4c-.12-1.63,1.29-6.14,1.19-7.06-.11-1.1-1.29-6.34-1.19-7.07A4,4,0,0,1,272.71,268.47Z" transform="translate(663.81 -137.79)"/><path class="cls-5" d="M353.57,268.47h31.09a6.83,6.83,0,0,1,6.83,6.83v8.41a6.83,6.83,0,0,1-6.83,6.83H353.57a4,4,0,0,1-4-4V272.44A4,4,0,0,1,353.57,268.47Z" transform="translate(663.81 -137.79)"/><line class="cls-3" x1="935.62" y1="141.72" x2="1040.89" y2="141.72"/><path class="cls-12" d="M272.4,248.13c28.86.38,64.88,1.93,73.17.56,3.48,0,6,2.25,6,5.73v7.76a6.3,6.3,0,0,1-6.3,6.29H272.4a3.66,3.66,0,0,1-3.66-3.66c-.36-.71,1.32-5.22,1.52-6.51s-1.5-5.33-1.52-6.52A3.65,3.65,0,0,1,272.4,248.13Z" transform="translate(663.81 -137.79)"/><path class="cls-21" d="M334.78,248.13c23.29.83,15.61.75,40.81,0a6.28,6.28,0,0,1,6.29,6.29v7.76a6.29,6.29,0,0,1-6.29,6.29H334.78a3.66,3.66,0,0,1-3.66-3.66v-13A3.65,3.65,0,0,1,334.78,248.13Z" transform="translate(663.81 -137.79)"/><line class="cls-3" x1="935.38" y1="120.51" x2="1032.42" y2="120.51"/><rect class="cls-22" x="137.77" y="552.78" width="12.91" height="37.23" transform="translate(952.27 1005) rotate(180)"/><path class="cls-23" d="M141.17,574.37" transform="translate(663.81 -137.79)"/><path class="cls-24" d="M143.24,490.09c.54-2.16,1.09-3.65,1.51-4.92h92c0,.8,6.25,7.93,6.21,8.74,0,0,27.69,27.38,34.09,33,52.69,46.67,6,65.17,6,65.17H149.88l.86-42,20.4.08C133.47,551.38,140.34,501.74,143.24,490.09Z" transform="translate(663.81 -137.79)"/><path class="cls-3" d="M246.24,592.12c15.05-7.21,22.77-21.91,16.23-38.53-3.18-8.09-11.15-16.08-17.66-21.76-9.64-8.41-13.79-12.38-25.12-20.86l-22.13-16" transform="translate(663.81 -137.79)"/><path class="cls-3" d="M151.85,509.6c11.33,8.48,17.16,13.82,26.79,22.23,6.52,5.68,14.49,13.67,17.67,21.76,4.57,11.64,2.29,19-4.65,24.77s-15.78,7-24.41,7.15c-8.45.1-8.52-.31-16.93-.29" transform="translate(663.81 -137.79)"/><path class="cls-3" d="M155.94,498.45s1,14.23-15.13,14.23" transform="translate(663.81 -137.79)"/><path class="cls-6" d="M74.12,595.52l-3.9-4.31,46.36-41,8.09-.08c-8.79,8.23-38.39,34.4-50.32,45.42Z" transform="translate(663.81 -137.79)"/><path class="cls-5" d="M74.35,595.56c11.93-11,41.53-37.19,50.32-45.42h16.71v42l-19.71-3.06Z" transform="translate(663.81 -137.79)"/><line class="cls-3" x1="778.53" y1="452.22" x2="775.72" y2="442.67"/><line class="cls-3" x1="767.38" y1="444" x2="769.84" y2="453.42"/><line class="cls-3" x1="759.4" y1="446.48" x2="762.06" y2="454.33"/><path class="cls-3" d="M106.07,590.78a1.06,1.06,0,0,0,.08.66,10.12,10.12,0,0,0,2.45,3.68,6.09,6.09,0,0,0,4.71,2,2.39,2.39,0,0,0,2.28-2.32c0-2.73-3.61-3.56-5.69-3.85-.85-.12-1.7-.2-2.56-.27C106.67,590.63,106.19,590.49,106.07,590.78Z" transform="translate(663.81 -137.79)"/><path class="cls-3" d="M105.84,590.65a1.05,1.05,0,0,0-.65.14,10.37,10.37,0,0,0-3.43,2.78,6.11,6.11,0,0,0-1.54,4.89,2.38,2.38,0,0,0,2.52,2c2.72-.24,3.21-3.92,3.3-6,0-.86,0-1.72,0-2.58C106.05,591.23,106.14,590.74,105.84,590.65Z" transform="translate(663.81 -137.79)"/><polygon class="cls-6" points="895.25 204.81 906.37 237 832.97 237 850.34 197.19 895.25 204.81"/><path class="cls-14" d="M159.43,395.37a34.92,34.92,0,0,1,11.88-10.05l4.77-2.24A58.38,58.38,0,0,1,196.17,378h22.47s20,3.94,27.83,10.11a55.33,55.33,0,0,1,12.32,14.42c4.11,6.53,8.06,17.12,10.45,21.94l-24,9.47c4,25.89,4.92,41.65,7.64,67.69l-105.3-.32h-6.73C136.59,437.66,150,408,159.43,395.37Z" transform="translate(663.81 -137.79)"/><polygon class="cls-22" points="859.64 240.47 859.14 217.7 882.63 217.41 882.53 240.22 870.89 258.73 859.64 240.47"/><path class="cls-6" d="M218.74,370.38s-8.45,4-20.29-5.92c0,0,2.77,11.77,20.23,11.56Z" transform="translate(663.81 -137.79)"/><path class="cls-22" d="M186,345.48a14.9,14.9,0,0,1,3.87-1.77,40.44,40.44,0,0,1,1.43-13.1,1.94,1.94,0,0,1,.66-.81,8.87,8.87,0,0,1,4.06-1.88,80.59,80.59,0,0,1,19.05-1.59,10.42,10.42,0,0,1,8.91,5.93c3.92,8.22,4.28,18.13,4,24.07,0,.18,0,.36,0,.53a16.47,16.47,0,0,1-4.33,10.45c-9.78,10.47-23.48-.86-27.88-5.05h-.05c-5.07,1.72-10.4-1.24-12.39-6.08C181.78,352.36,182.45,347.89,186,345.48Z" transform="translate(663.81 -137.79)"/><path class="cls-6" d="M205.06,350.13a1.36,1.36,0,0,1,1.31-1.41,1.38,1.38,0,0,1,1.41,1.32,1.36,1.36,0,1,1-2.72.09Z" transform="translate(663.81 -137.79)"/><path class="cls-6" d="M220,350.13a1.36,1.36,0,1,1,1.41,1.32A1.36,1.36,0,0,1,220,350.13Z" transform="translate(663.81 -137.79)"/><path class="cls-25" d="M226.37,356.18c-1.89.07-3.38,1.37-3.32,2.9s1.64,2.71,3.53,2.64a4.51,4.51,0,0,0,.53-.07,25.7,25.7,0,0,0,1-5.16A4,4,0,0,0,226.37,356.18Z" transform="translate(663.81 -137.79)"/><path class="cls-25" d="M210.06,359.55c-.52,1.86-2.81,2.86-5.12,2.22s-3.76-2.68-3.24-4.54,2.81-2.86,5.12-2.22S210.58,357.68,210.06,359.55Z" transform="translate(663.81 -137.79)"/><path class="cls-3" d="M215,348.72a19.86,19.86,0,0,0,.71,4.07c.66,1.91,1.34,1.84,1.49,2.43.42,1.63-2.28,1.69-2.78.66" transform="translate(663.81 -137.79)"/><path class="cls-3" d="M207.54,357.91s5.33,6.17,12.47,2.07" transform="translate(663.81 -137.79)"/><path class="cls-3" d="M210.28,345.41s-3.19-3.1-6,.39" transform="translate(663.81 -137.79)"/><path class="cls-3" d="M224.34,345.41s-3.19-3.1-6,.39" transform="translate(663.81 -137.79)"/><line class="cls-26" x1="904.57" y1="284.6" x2="908.17" y2="296.16"/><path class="cls-3" d="M187.77,353.16a4.93,4.93,0,0,1,4.52,4.08" transform="translate(663.81 -137.79)"/><path class="cls-6" d="M216.05,319.77c-5.87,15-11.84,23-16.93,27.08A15.48,15.48,0,0,1,181.43,348h0s-.67-37,34.62-28.2Z" transform="translate(663.81 -137.79)"/><path class="cls-3" d="M191,342.89s19.22,6.23,22.81-17.66" transform="translate(663.81 -137.79)"/><path class="cls-6" d="M211.38,320.13s1.71,23.23,21.29,24.93C232.67,345.06,233.62,314.17,211.38,320.13Z" transform="translate(663.81 -137.79)"/><polygon class="cls-27" points="898.31 257.1 898.31 257.1 898.31 257.1 898.31 257.1"/><path class="cls-22" d="M192.29,427.46l2.91,5.17,36.36-34.92c2.24.33,9.25,1.74,12.07,6.68l4,9.1c2.07,3.85,5.37,1.73,5.37,1.73a3.07,3.07,0,0,0,2.38,1.41l-47.81,55.78A21,21,0,0,1,192,478.24c-7.29-.32-15.55-7.52-19.13-13.88L164,448.42Z" transform="translate(663.81 -137.79)"/><path class="cls-20" d="M233.91,399.24h.67v-.12h77c7.44,0,13.47,6.41,13.47,14.31V515.81H234.58V494h-5.34v-90A4.68,4.68,0,0,1,233.91,399.24Z" transform="translate(663.81 -137.79)"/><rect class="cls-4" x="898.4" y="333.59" width="90.47" height="12.97"/><rect class="cls-4" x="898.4" y="356.16" width="90.47" height="8.16"/><path class="cls-22" d="M231.43,397.79a29.66,29.66,0,0,1,10-6.37c7.81-3,21-6.17,29.09,1.82a17.75,17.75,0,0,1,5.08,13.84c-.39,5.68-1.68,12.77-5.65,12.92,0,0-2.76,3.13-5.4.36a6.27,6.27,0,0,1-3.47,1,3.84,3.84,0,0,1-3-1.76s-4.11,2.64-6.69-2.15l-5-11.36c-3.52-6.15-12.26-7.91-15-8.33Z" transform="translate(663.81 -137.79)"/><path class="cls-3" d="M270,420s1.72-9.7,0-13.06" transform="translate(663.81 -137.79)"/><path class="cls-3" d="M264.28,406.94s2.42,8.39.29,13.42" transform="translate(663.81 -137.79)"/><path class="cls-3" d="M258.12,419.63s1.62-8.6-.59-13.26" transform="translate(663.81 -137.79)"/><path class="cls-22" d="M286.45,392c7.8-3,21-6.18,29.09,1.82a17.73,17.73,0,0,1,5.08,13.84c-.4,5.67-1.68,12.76-5.65,12.91,0,0-2.76,3.13-5.4.37a6.3,6.3,0,0,1-3.47,1,3.81,3.81,0,0,1-3-1.76s-4.11,2.64-6.69-2.15l-4.95-11.35a12.5,12.5,0,0,0-2.51-3.07,4.72,4.72,0,0,1,0,2.21,1.6,1.6,0,0,1-2.46.95l-10.08-8.42A29.66,29.66,0,0,1,286.45,392Z" transform="translate(663.81 -137.79)"/><path class="cls-3" d="M314.94,420.28s1.71-9.7,0-13" transform="translate(663.81 -137.79)"/><path class="cls-3" d="M309.25,407.23s2.41,8.39.28,13.42" transform="translate(663.81 -137.79)"/><path class="cls-3" d="M303.09,419.91s1.61-8.59-.6-13.26" transform="translate(663.81 -137.79)"/><path class="cls-3" d="M284.28,399a11.6,11.6,0,0,1,4.69,4.58" transform="translate(663.81 -137.79)"/><line class="cls-3" x1="898.31" y1="266.54" x2="898.31" y2="356.16"/><path class="cls-3" d="M192.08,427.25c-.76-1.39-7.08-10.75-7.08-10.75" transform="translate(663.81 -137.79)"/><path class="cls-3" d="M163.85,448.48c-.77-1.39-7.08-10.75-7.08-10.75" transform="translate(663.81 -137.79)"/><polyline class="cls-3" points="886.86 241.2 870.89 267.07 854.55 240.87"/><line class="cls-3" x1="852.17" y1="287.88" x2="826.62" y2="306.37"/><path class="cls-4" d="M339.42,565.09c-6.8-.81-13.69-.09-20.52-.6s-14-2.49-18.56-7.57c-3.29-3.64-5-9.6-1.64-13.77,2.41-3,6.17-4.22,9.78-5.12,19.53-4.84,39.95-2.82,59.93-4.77,18-1.75,35.91-6.72,53.82-4.45,8.91,1.13,16.14,16.47,7.91,23.12-.9.72-2.07,1.61-1.8,2.77a2.56,2.56,0,0,0,.54,1c2.76,3.68,5.82,6.68,5.7,11.74-.06,2.53-1.24,4.86-1.92,7.28-.82,2.91-1.18,6.43-3.66,8-2.07,1.28-4.81.49-6.69-1.1s-3.13-3.82-4.59-5.83a31.35,31.35,0,0,0-10.21-9.09c-5.06-2.8-11.11-3-16.71-3.61-6.26-.7-12.54-1.14-18.81-1.5-12.59-.72-25.19-1.11-37.73-2.55" transform="translate(663.81 -137.79)"/><path class="cls-28" d="M428.34,554.7c-3.8-5.34-10.85-7.33-14.55-7.84-8.69-1.22-17.23,1.38-25.69,3-11.17,2.14-56.27-.47-67.48.15-2.5.14-5.23.38-7,2.22" transform="translate(663.81 -137.79)"/><path class="cls-14" d="M368.94,604.64l-53.66.39a24.25,24.25,0,0,1-7.46-.74c-6.26-2-9.21-8.2-12.05-13.62-2.59-4.93-3.51-10.48-4.41-15.93l-1.05-6.37c-.33-2-.65-4.18.19-6.07,1-2.3,3.52-3.66,6-4.44,4.13-1.29,8.54-1.41,12.88-1.44,10.37-.08,20.75.28,31.11.63,21.92.76,44,1.53,65.45,5.81,5.58,1.11,11.1,3.45,13.63,9a22.72,22.72,0,0,0,1.71,3.67c1.28,1.83,3.44,2.82,4.87,4.53a13.44,13.44,0,0,1,2.4,5.75c1,4.21,1.52,9.12-1.21,12.44S420.11,601.9,416,602q-5.07.15-10.16.12c-2.65,0-4.72.76-7.27,1.06-6.85.82-14,.54-20.93.46" transform="translate(663.81 -137.79)"/><path class="cls-3" d="M308,569c3.78,6.18,11,9.36,18,10.74,10,2,20.23,1,30.35.29,15.82-1.19,31.72-.63,47.52-1.9,5.84-.48,14.6-3,20.33-1.07" transform="translate(663.81 -137.79)"/><line class="cls-3" x1="960.34" y1="463.12" x2="944.07" y2="386.92"/><line class="cls-3" x1="1090.96" y1="463.12" x2="1107.24" y2="386.92"/><line class="cls-3" x1="977.49" y1="463.58" x2="944.07" y2="386.92"/><line class="cls-3" x1="955.06" y1="438.37" x2="977.49" y2="386.92"/><line class="cls-3" x1="999.11" y1="463.58" x2="965.69" y2="386.92"/><line class="cls-3" x1="965.69" y1="463.58" x2="999.11" y2="386.92"/><line class="cls-3" x1="1020.74" y1="463.58" x2="987.32" y2="386.92"/><line class="cls-3" x1="987.32" y1="463.58" x2="1020.74" y2="386.92"/><line class="cls-3" x1="1042.37" y1="463.58" x2="1008.94" y2="386.92"/><line class="cls-3" x1="1008.94" y1="463.58" x2="1042.37" y2="386.92"/><line class="cls-3" x1="1063.99" y1="463.58" x2="1030.57" y2="386.92"/><line class="cls-3" x1="1030.57" y1="463.58" x2="1063.99" y2="386.92"/><line class="cls-3" x1="1085.62" y1="463.58" x2="1052.19" y2="386.92"/><line class="cls-3" x1="1052.19" y1="463.58" x2="1085.62" y2="386.92"/><line class="cls-3" x1="1096.25" y1="438.37" x2="1073.82" y2="386.92"/><line class="cls-3" x1="1073.82" y1="463.58" x2="1107.24" y2="386.92"/><rect class="cls-21" x="959.16" y="463.12" width="132.98" height="5.4"/><rect class="cls-21" x="939.01" y="383.25" width="173.29" height="3.66"/><circle class="cls-29" cx="661.78" cy="444.82" r="21.35" transform="translate(597.87 632.97) rotate(-58.03)"/><path class="cls-11" d="M663.76,436.93a6.27,6.27,0,1,1-6.27-6.27A6.27,6.27,0,0,1,663.76,436.93Z" transform="translate(663.81 -137.79)"/><circle class="cls-29" cx="1095.03" cy="37.2" r="21.35"/><path class="cls-11" d="M433.2,167.1a6.27,6.27,0,1,1-6.27-6.27A6.26,6.26,0,0,1,433.2,167.1Z" transform="translate(663.81 -137.79)"/><circle class="cls-29" cx="-205.52" cy="172.14" r="21.35" transform="translate(303.69 -184.66) rotate(-85.27)"/><path class="cls-11" d="M-203.53,164.25a6.27,6.27,0,0,1-6.27,6.27,6.27,6.27,0,0,1-6.27-6.27A6.27,6.27,0,0,1-209.8,158,6.27,6.27,0,0,1-203.53,164.25Z" transform="translate(663.81 -137.79)"/><circle class="cls-29" cx="189.43" cy="367.69" r="21.35"/><path class="cls-11" d="M-472.4,497.59a6.27,6.27,0,0,1-6.27,6.27,6.27,6.27,0,0,1-6.26-6.27,6.27,6.27,0,0,1,6.26-6.27A6.27,6.27,0,0,1-472.4,497.59Z" transform="translate(663.81 -137.79)"/><circle class="cls-29" cx="-642.09" cy="240.7" r="21.35" transform="translate(-172.85 -554.62) rotate(-85.93)"/><path class="cls-11" d="M-640.11,232.81a6.26,6.26,0,0,1-6.26,6.27,6.27,6.27,0,0,1-6.27-6.27,6.27,6.27,0,0,1,6.27-6.26A6.26,6.26,0,0,1-640.11,232.81Z" transform="translate(663.81 -137.79)"/><circle class="cls-29" cx="257.41" cy="552.08" r="21.35" transform="translate(324.9 538.61) rotate(-76.78)"/><path class="cls-11" d="M259.39,544.19a6.27,6.27,0,1,1-6.27-6.26A6.27,6.27,0,0,1,259.39,544.19Z" transform="translate(663.81 -137.79)"/><circle class="cls-29" cx="663.76" cy="230.36" r="21.35"/><path class="cls-11" d="M1.93,360.26a6.27,6.27,0,0,1-6.27,6.27,6.27,6.27,0,0,1-6.27-6.27A6.27,6.27,0,0,1-4.34,354,6.27,6.27,0,0,1,1.93,360.26Z" transform="translate(663.81 -137.79)"/><path class="cls-29" d="M620.44,270A11.45,11.45,0,1,1,609,258.56,11.45,11.45,0,0,1,620.44,270Z" transform="translate(663.81 -137.79)"/><path class="cls-11" d="M610.5,267.16a3.36,3.36,0,1,1-3.36-3.36A3.35,3.35,0,0,1,610.5,267.16Z" transform="translate(663.81 -137.79)"/><circle class="cls-29" cx="564.35" cy="502.41" r="11.45" transform="translate(636.74 834.86) rotate(-80.17)"/><path class="cls-11" d="M565.86,499.56a3.37,3.37,0,1,1-3.36-3.36A3.36,3.36,0,0,1,565.86,499.56Z" transform="translate(663.81 -137.79)"/><path class="cls-29" d="M72.58,258a11.46,11.46,0,1,1-11.46-11.45A11.46,11.46,0,0,1,72.58,258Z" transform="translate(663.81 -137.79)"/><path class="cls-11" d="M62.64,255.16a3.37,3.37,0,1,1-3.36-3.36A3.36,3.36,0,0,1,62.64,255.16Z" transform="translate(663.81 -137.79)"/><path class="cls-29" d="M-607.06,362.5A11.45,11.45,0,0,1-618.51,374,11.44,11.44,0,0,1-630,362.5a11.45,11.45,0,0,1,11.45-11.45A11.45,11.45,0,0,1-607.06,362.5Z" transform="translate(663.81 -137.79)"/><path class="cls-11" d="M-617,359.65a3.36,3.36,0,0,1-3.36,3.36,3.35,3.35,0,0,1-3.36-3.36,3.35,3.35,0,0,1,3.36-3.36A3.36,3.36,0,0,1-617,359.65Z" transform="translate(663.81 -137.79)"/><circle class="cls-29" cx="836.97" cy="230.36" r="11.45"/><circle class="cls-29" cx="410.49" cy="389.5" r="11.45" transform="translate(509.28 220.72) rotate(-40.36)"/><path class="cls-11" d="M412,386.65a3.36,3.36,0,1,1-3.36-3.36A3.35,3.35,0,0,1,412,386.65Z" transform="translate(663.81 -137.79)"/><path class="cls-29" d="M-392,170.63a11.45,11.45,0,0,1-11.45,11.45,11.45,11.45,0,0,1-11.45-11.45,11.45,11.45,0,0,1,11.45-11.45A11.44,11.44,0,0,1-392,170.63Z" transform="translate(663.81 -137.79)"/><path class="cls-11" d="M-401.91,167.78a3.36,3.36,0,0,1-3.36,3.36,3.37,3.37,0,0,1-3.36-3.36,3.36,3.36,0,0,1,3.36-3.36A3.35,3.35,0,0,1-401.91,167.78Z" transform="translate(663.81 -137.79)"/><path class="cls-29" d="M-605,497.45a6.18,6.18,0,0,1-6.17,6.18,6.18,6.18,0,0,1-6.18-6.18,6.18,6.18,0,0,1,6.18-6.17A6.17,6.17,0,0,1-605,497.45Z" transform="translate(663.81 -137.79)"/><path class="cls-11" d="M-609.75,495.91a1.81,1.81,0,0,1-1.81,1.82,1.81,1.81,0,0,1-1.81-1.82,1.81,1.81,0,0,1,1.81-1.81A1.81,1.81,0,0,1-609.75,495.91Z" transform="translate(663.81 -137.79)"/><path class="cls-29" d="M714.77,516.75a6.18,6.18,0,1,1-6.17-6.17A6.18,6.18,0,0,1,714.77,516.75Z" transform="translate(663.81 -137.79)"/><path class="cls-11" d="M710,515.22a1.82,1.82,0,1,1-1.82-1.82A1.82,1.82,0,0,1,710,515.22Z" transform="translate(663.81 -137.79)"/><path class="cls-29" d="M451,425.51a6.18,6.18,0,1,1-6.17-6.18A6.17,6.17,0,0,1,451,425.51Z" transform="translate(663.81 -137.79)"/><path class="cls-11" d="M446.25,424a1.81,1.81,0,1,1-1.81-1.81A1.81,1.81,0,0,1,446.25,424Z" transform="translate(663.81 -137.79)"/><path class="cls-29" d="M22.37,528.54a6.18,6.18,0,1,1-6.17-6.18A6.18,6.18,0,0,1,22.37,528.54Z" transform="translate(663.81 -137.79)"/><path class="cls-11" d="M17.6,527a1.82,1.82,0,1,1-1.82-1.81A1.83,1.83,0,0,1,17.6,527Z" transform="translate(663.81 -137.79)"/><path class="cls-29" d="M-51.36,182.82A6.18,6.18,0,0,1-57.53,189a6.18,6.18,0,0,1-6.18-6.18,6.18,6.18,0,0,1,6.18-6.18A6.18,6.18,0,0,1-51.36,182.82Z" transform="translate(663.81 -137.79)"/><path class="cls-11" d="M-56.13,181.28a1.83,1.83,0,0,1-1.82,1.82,1.82,1.82,0,0,1-1.81-1.82,1.81,1.81,0,0,1,1.81-1.81A1.82,1.82,0,0,1-56.13,181.28Z" transform="translate(663.81 -137.79)"/><path class="cls-29" d="M-585.15,447.55a6.18,6.18,0,0,1-6.18,6.17,6.18,6.18,0,0,1-6.18-6.17,6.18,6.18,0,0,1,6.18-6.18A6.18,6.18,0,0,1-585.15,447.55Z" transform="translate(663.81 -137.79)"/><path class="cls-11" d="M-589.93,446a1.81,1.81,0,0,1-1.81,1.81,1.81,1.81,0,0,1-1.82-1.81,1.81,1.81,0,0,1,1.82-1.81A1.81,1.81,0,0,1-589.93,446Z" transform="translate(663.81 -137.79)"/><path class="cls-29" d="M377.24,505.17a6.18,6.18,0,1,1-6.18-6.18A6.18,6.18,0,0,1,377.24,505.17Z" transform="translate(663.81 -137.79)"/><path class="cls-11" d="M372.46,503.63a1.82,1.82,0,1,1-1.81-1.81A1.81,1.81,0,0,1,372.46,503.63Z" transform="translate(663.81 -137.79)"/><path class="cls-29" d="M159.49,457.69a6.18,6.18,0,1,1-6.17-6.18A6.17,6.17,0,0,1,159.49,457.69Z" transform="translate(663.81 -137.79)"/><path class="cls-11" d="M154.71,456.15a1.81,1.81,0,1,1-1.81-1.81A1.81,1.81,0,0,1,154.71,456.15Z" transform="translate(663.81 -137.79)"/><path class="cls-29" d="M-274.17,537.87a6.18,6.18,0,0,1-6.18,6.18,6.18,6.18,0,0,1-6.18-6.18,6.18,6.18,0,0,1,6.18-6.17A6.18,6.18,0,0,1-274.17,537.87Z" transform="translate(663.81 -137.79)"/><path class="cls-11" d="M-278.95,536.34a1.81,1.81,0,0,1-1.82,1.81,1.81,1.81,0,0,1-1.81-1.81,1.81,1.81,0,0,1,1.81-1.82A1.81,1.81,0,0,1-278.95,536.34Z" transform="translate(663.81 -137.79)"/><circle class="cls-29" cx="535.26" cy="428.78" r="11.45"/><path class="cls-11" d="M-127,563.72a3.36,3.36,0,0,1-3.36,3.36,3.36,3.36,0,0,1-3.36-3.36,3.35,3.35,0,0,1,3.36-3.36A3.35,3.35,0,0,1-127,563.72Z" transform="translate(663.81 -137.79)"/><path class="cls-29" d="M120.76,149.61a11.46,11.46,0,1,1-11.45-11.45A11.46,11.46,0,0,1,120.76,149.61Z" transform="translate(663.81 -137.79)"/><path class="cls-11" d="M110.82,146.76a3.37,3.37,0,1,1-3.36-3.36A3.36,3.36,0,0,1,110.82,146.76Z" transform="translate(663.81 -137.79)"/><circle class="cls-29" cx="565.86" cy="292.31" r="11.45"/><path class="cls-11" d="M-96.45,427.25a3.35,3.35,0,0,1-3.36,3.36,3.35,3.35,0,0,1-3.36-3.36,3.35,3.35,0,0,1,3.36-3.36A3.35,3.35,0,0,1-96.45,427.25Z" transform="translate(663.81 -137.79)"/><circle class="cls-29" cx="352.11" cy="634.36" r="21.35" transform="translate(354.68 795.16) rotate(-85.27)"/><path class="cls-11" d="M354.09,626.47a6.27,6.27,0,1,1-6.27-6.26A6.27,6.27,0,0,1,354.09,626.47Z" transform="translate(663.81 -137.79)"/><circle class="cls-29" cx="-96.45" cy="263.49" r="21.35" transform="translate(312.73 7.85) rotate(-85.27)"/><path class="cls-11" d="M-94.46,255.61a6.27,6.27,0,0,1-6.27,6.26,6.27,6.27,0,0,1-6.27-6.26,6.27,6.27,0,0,1,6.27-6.27A6.27,6.27,0,0,1-94.46,255.61Z" transform="translate(663.81 -137.79)"/></g></g></svg>